<svg width="276" height="72" viewBox="0 0 276 72" fill="none" xmlns="http://www.w3.org/2000/svg">
<path d="M4.19922 45V10.9912H25.9033V16.5088H10.6934V24.8584H24.707V30.3516H10.6934V45H4.19922ZM35.7373 28.0078C35.7373 22.181 37.0475 17.7702 39.668 14.7754C42.3047 11.7643 46.04 10.2588 50.874 10.2588C55.708 10.2588 59.4434 11.7643 62.0801 14.7754C64.7168 17.7702 66.0352 22.181 66.0352 28.0078C66.0352 33.8346 64.7168 38.2536 62.0801 41.2646C59.4434 44.2594 55.708 45.7568 50.874 45.7568C46.04 45.7568 42.3047 44.2594 39.668 41.2646C37.0475 38.2536 35.7373 33.8346 35.7373 28.0078ZM42.7197 33.2568C42.7197 34.3962 42.9395 35.3971 43.3789 36.2598C43.8184 37.1224 44.4043 37.8548 45.1367 38.457C45.8691 39.0592 46.7236 39.5068 47.7002 39.7998C48.6768 40.0928 49.7347 40.2393 50.874 40.2393C52.0133 40.2393 53.0713 40.0928 54.0479 39.7998C55.0407 39.5068 55.9033 39.0592 56.6357 38.457C57.3682 37.8548 57.946 37.1224 58.3691 36.2598C58.8086 35.3809 59.0283 34.3799 59.0283 33.2568V22.7588C59.0283 21.6195 58.8086 20.6185 58.3691 19.7559C57.946 18.8932 57.3682 18.1608 56.6357 17.5586C55.9033 16.9564 55.0407 16.5088 54.0479 16.2158C53.0713 15.9066 52.0133 15.752 50.874 15.752C49.7347 15.752 48.6768 15.9066 47.7002 16.2158C46.7236 16.5088 45.8691 16.9564 45.1367 17.5586C44.4043 18.1608 43.8184 18.8932 43.3789 19.7559C42.9395 20.6185 42.7197 21.6195 42.7197 22.7588V33.2568ZM77.9688 45V10.9912H91.8115C95.4411 10.9912 98.1266 11.8538 99.8682 13.5791C101.61 15.2881 102.48 17.9248 102.48 21.4893C102.48 24.1911 101.838 26.3639 100.552 28.0078C99.266 29.6354 97.4756 30.7666 95.1807 31.4014L102.969 45H95.7666L88.6133 31.9385H84.4629V45H77.9688ZM84.4629 26.5918H92.666C94.7005 26.5918 95.7178 25.4606 95.7178 23.1982V19.707C95.7178 18.5677 95.4899 17.7539 95.0342 17.2656C94.5947 16.7611 93.8053 16.5088 92.666 16.5088H84.4629V26.5918ZM112.168 10.9912H119.419L124.668 37.9932H124.863L129.966 10.9912H138.804L143.906 37.9932H144.102L149.448 10.9912H156.553L148.35 45H139.512L134.458 18.3398H134.263L129.16 45H120.42L112.168 10.9912ZM164.312 45L175.908 10.9912H182.817L194.365 45H187.358L185.112 37.749H173.516L171.318 45H164.312ZM175.2 32.2559H183.452L179.521 18.8525H179.302L175.2 32.2559ZM204.59 45V10.9912H218.433C222.062 10.9912 224.748 11.8538 226.489 13.5791C228.231 15.2881 229.102 17.9248 229.102 21.4893C229.102 24.1911 228.459 26.3639 227.173 28.0078C225.887 29.6354 224.097 30.7666 221.802 31.4014L229.59 45H222.388L215.234 31.9385H211.084V45H204.59ZM211.084 26.5918H219.287C221.322 26.5918 222.339 25.4606 222.339 23.1982V19.707C222.339 18.5677 222.111 17.7539 221.655 17.2656C221.216 16.7611 220.426 16.5088 219.287 16.5088H211.084V26.5918ZM241.279 45V10.9912H252.778C258.149 10.9912 262.007 12.3991 264.351 15.2148C266.711 18.0306 267.891 22.2949 267.891 28.0078C267.891 33.7044 266.711 37.9606 264.351 40.7764C262.007 43.5921 258.149 45 252.778 45H241.279ZM247.773 39.5068H252.778C255.48 39.5068 257.547 38.9779 258.979 37.9199C260.412 36.8457 261.128 35.1693 261.128 32.8906V23.1006C261.128 20.8382 260.412 19.1781 258.979 18.1201C257.547 17.0459 255.48 16.5088 252.778 16.5088H247.773V39.5068Z" fill="#0033FF"/>
<path d="M89.0098 69V61.5181H91.4321C92.5601 61.5181 93.3765 61.8278 93.8813 62.4473C94.3898 63.0667 94.644 64.0049 94.644 65.2617C94.644 66.515 94.3898 67.4513 93.8813 68.0708C93.3765 68.6903 92.5601 69 91.4321 69H89.0098ZM90.0571 68.0654H91.4321C92.1375 68.0654 92.6567 67.9186 92.9897 67.625C93.3228 67.3314 93.4893 66.9089 93.4893 66.3574V64.1606C93.4893 63.6092 93.3228 63.1867 92.9897 62.8931C92.6567 62.5994 92.1375 62.4526 91.4321 62.4526H90.0571V68.0654ZM95.9546 66.1963C95.9546 65.7702 96.0065 65.3763 96.1104 65.0146C96.2178 64.6494 96.3753 64.3397 96.583 64.0854C96.7943 63.8276 97.0485 63.6253 97.3457 63.4785C97.6429 63.3317 97.9849 63.2583 98.3716 63.2583C98.7762 63.2583 99.1289 63.3281 99.4297 63.4678C99.7305 63.6074 99.9793 63.799 100.176 64.0425C100.373 64.2824 100.522 64.5653 100.622 64.8911C100.722 65.217 100.772 65.5679 100.772 65.9438V66.4702H96.9966V67.0664C96.9966 67.2705 97.0342 67.4513 97.1094 67.6089C97.1882 67.7664 97.2938 67.9007 97.4263 68.0117C97.5588 68.1191 97.7074 68.2015 97.8721 68.2588C98.0368 68.3125 98.2069 68.3394 98.3823 68.3394C98.7332 68.3394 99.0376 68.2498 99.2954 68.0708C99.5532 67.8918 99.7 67.6071 99.7358 67.2168H100.729C100.708 67.5176 100.629 67.7861 100.493 68.0225C100.357 68.2552 100.18 68.4539 99.9614 68.6187C99.7466 68.7834 99.5031 68.9105 99.231 69C98.9588 69.0895 98.6724 69.1343 98.3716 69.1343C97.967 69.1343 97.6125 69.0609 97.3081 68.9141C97.0073 68.7673 96.7549 68.5649 96.5508 68.3071C96.3503 68.0493 96.1999 67.7414 96.0996 67.3833C96.0029 67.0252 95.9546 66.6296 95.9546 66.1963ZM96.9966 65.6807H99.7466V65.3691C99.7466 65.165 99.709 64.9806 99.6338 64.8159C99.5622 64.6512 99.4619 64.5116 99.333 64.397C99.2077 64.2824 99.0609 64.1965 98.8926 64.1392C98.7279 64.0783 98.5542 64.0479 98.3716 64.0479C98.189 64.0479 98.0153 64.0783 97.8506 64.1392C97.6859 64.1965 97.5391 64.2824 97.4102 64.397C97.2812 64.5116 97.1792 64.6512 97.104 64.8159C97.0324 64.9806 96.9966 65.165 96.9966 65.3691V65.6807ZM101.669 63.3926H102.738L104.146 67.8237H104.188L105.623 63.3926H106.643L104.629 69H103.684L101.669 63.3926ZM107.567 66.1963C107.567 65.7702 107.619 65.3763 107.723 65.0146C107.83 64.6494 107.988 64.3397 108.195 64.0854C108.407 63.8276 108.661 63.6253 108.958 63.4785C109.255 63.3317 109.597 63.2583 109.984 63.2583C110.389 63.2583 110.741 63.3281 111.042 63.4678C111.343 63.6074 111.592 63.799 111.789 64.0425C111.986 64.2824 112.134 64.5653 112.234 64.8911C112.335 65.217 112.385 65.5679 112.385 65.9438V66.4702H108.609V67.0664C108.609 67.2705 108.646 67.4513 108.722 67.6089C108.8 67.7664 108.906 67.9007 109.039 68.0117C109.171 68.1191 109.32 68.2015 109.484 68.2588C109.649 68.3125 109.819 68.3394 109.995 68.3394C110.346 68.3394 110.65 68.2498 110.908 68.0708C111.166 67.8918 111.312 67.6071 111.348 67.2168H112.342C112.32 67.5176 112.242 67.7861 112.105 68.0225C111.969 68.2552 111.792 68.4539 111.574 68.6187C111.359 68.7834 111.115 68.9105 110.843 69C110.571 69.0895 110.285 69.1343 109.984 69.1343C109.579 69.1343 109.225 69.0609 108.92 68.9141C108.62 68.7673 108.367 68.5649 108.163 68.3071C107.963 68.0493 107.812 67.7414 107.712 67.3833C107.615 67.0252 107.567 66.6296 107.567 66.1963ZM108.609 65.6807H111.359V65.3691C111.359 65.165 111.321 64.9806 111.246 64.8159C111.174 64.6512 111.074 64.5116 110.945 64.397C110.82 64.2824 110.673 64.1965 110.505 64.1392C110.34 64.0783 110.167 64.0479 109.984 64.0479C109.801 64.0479 109.628 64.0783 109.463 64.1392C109.298 64.1965 109.151 64.2824 109.022 64.397C108.894 64.5116 108.792 64.6512 108.716 64.8159C108.645 64.9806 108.609 65.165 108.609 65.3691V65.6807ZM113.91 69V61.5181H114.898V69H113.91ZM116.451 66.1963C116.451 65.7702 116.501 65.3763 116.601 65.0146C116.705 64.6494 116.861 64.3397 117.068 64.0854C117.28 63.8276 117.543 63.6253 117.858 63.4785C118.173 63.3317 118.544 63.2583 118.97 63.2583C119.396 63.2583 119.766 63.3317 120.082 63.4785C120.397 63.6253 120.658 63.8276 120.866 64.0854C121.073 64.3397 121.229 64.6494 121.333 65.0146C121.437 65.3763 121.489 65.7702 121.489 66.1963C121.489 66.6296 121.437 67.0252 121.333 67.3833C121.229 67.7414 121.073 68.0493 120.866 68.3071C120.658 68.5649 120.395 68.7673 120.076 68.9141C119.761 69.0609 119.392 69.1343 118.97 69.1343C118.544 69.1343 118.173 69.0609 117.858 68.9141C117.543 68.7673 117.28 68.5649 117.068 68.3071C116.861 68.0493 116.705 67.7414 116.601 67.3833C116.501 67.0252 116.451 66.6296 116.451 66.1963ZM117.493 67.0664C117.493 67.2562 117.532 67.4299 117.611 67.5874C117.693 67.745 117.801 67.8792 117.933 67.9902C118.066 68.0977 118.221 68.1836 118.4 68.248C118.579 68.3089 118.769 68.3394 118.97 68.3394C119.167 68.3394 119.355 68.3089 119.534 68.248C119.713 68.1836 119.868 68.0977 120.001 67.9902C120.133 67.8792 120.239 67.745 120.318 67.5874C120.4 67.4299 120.441 67.2562 120.441 67.0664V65.3262C120.441 65.1364 120.4 64.9627 120.318 64.8052C120.239 64.6476 120.133 64.5133 120.001 64.4023C119.868 64.2913 119.713 64.2054 119.534 64.1445C119.355 64.0801 119.167 64.0479 118.97 64.0479C118.773 64.0479 118.583 64.0801 118.4 64.1445C118.221 64.2054 118.066 64.2913 117.933 64.4023C117.801 64.5133 117.693 64.6476 117.611 64.8052C117.532 64.9627 117.493 65.1364 117.493 65.3262V67.0664ZM123.02 70.8691V63.3926H124.008V64.3057C124.183 63.9691 124.42 63.7113 124.717 63.5322C125.014 63.3496 125.376 63.2583 125.802 63.2583C126.174 63.2583 126.5 63.3353 126.779 63.4893C127.059 63.6432 127.29 63.8527 127.472 64.1177C127.658 64.3791 127.796 64.6906 127.886 65.0522C127.979 65.4103 128.025 65.7917 128.025 66.1963C128.025 66.6081 127.979 66.9912 127.886 67.3457C127.796 67.7002 127.658 68.0099 127.472 68.2749C127.29 68.5399 127.059 68.7493 126.779 68.9033C126.504 69.0573 126.178 69.1343 125.802 69.1343C125.376 69.1343 125.014 69.0448 124.717 68.8657C124.42 68.6831 124.183 68.4235 124.008 68.0869V70.8691H123.02ZM124.008 66.6689C124.008 67.1523 124.14 67.5516 124.405 67.8667C124.67 68.1818 125.052 68.3394 125.549 68.3394C125.968 68.3394 126.31 68.223 126.575 67.9902C126.844 67.7539 126.978 67.446 126.978 67.0664V65.3262C126.978 64.9466 126.844 64.6387 126.575 64.4023C126.31 64.166 125.968 64.0479 125.549 64.0479C125.052 64.0479 124.67 64.2072 124.405 64.5259C124.14 64.841 124.008 65.2402 124.008 65.7236V66.6689ZM129.266 66.1963C129.266 65.7702 129.318 65.3763 129.422 65.0146C129.529 64.6494 129.687 64.3397 129.895 64.0854C130.106 63.8276 130.36 63.6253 130.657 63.4785C130.954 63.3317 131.296 63.2583 131.683 63.2583C132.088 63.2583 132.44 63.3281 132.741 63.4678C133.042 63.6074 133.291 63.799 133.488 64.0425C133.685 64.2824 133.833 64.5653 133.934 64.8911C134.034 65.217 134.084 65.5679 134.084 65.9438V66.4702H130.308V67.0664C130.308 67.2705 130.346 67.4513 130.421 67.6089C130.5 67.7664 130.605 67.9007 130.738 68.0117C130.87 68.1191 131.019 68.2015 131.184 68.2588C131.348 68.3125 131.518 68.3394 131.694 68.3394C132.045 68.3394 132.349 68.2498 132.607 68.0708C132.865 67.8918 133.012 67.6071 133.047 67.2168H134.041C134.02 67.5176 133.941 67.7861 133.805 68.0225C133.669 68.2552 133.491 68.4539 133.273 68.6187C133.058 68.7834 132.815 68.9105 132.542 69C132.27 69.0895 131.984 69.1343 131.683 69.1343C131.278 69.1343 130.924 69.0609 130.62 68.9141C130.319 68.7673 130.066 68.5649 129.862 68.3071C129.662 68.0493 129.511 67.7414 129.411 67.3833C129.314 67.0252 129.266 66.6296 129.266 66.1963ZM130.308 65.6807H133.058V65.3691C133.058 65.165 133.021 64.9806 132.945 64.8159C132.874 64.6512 132.773 64.5116 132.645 64.397C132.519 64.2824 132.372 64.1965 132.204 64.1392C132.039 64.0783 131.866 64.0479 131.683 64.0479C131.5 64.0479 131.327 64.0783 131.162 64.1392C130.997 64.1965 130.851 64.2824 130.722 64.397C130.593 64.5116 130.491 64.6512 130.416 64.8159C130.344 64.9806 130.308 65.165 130.308 65.3691V65.6807ZM135.303 66.1963C135.303 65.7917 135.348 65.4103 135.438 65.0522C135.531 64.6906 135.668 64.3791 135.851 64.1177C136.034 63.8527 136.265 63.6432 136.544 63.4893C136.823 63.3353 137.149 63.2583 137.521 63.2583C137.94 63.2583 138.3 63.3478 138.601 63.5269C138.902 63.7059 139.14 63.9655 139.315 64.3057V61.5181H140.309V69H139.315V68.0869C139.14 68.4235 138.905 68.6831 138.612 68.8657C138.318 69.0448 137.964 69.1343 137.548 69.1343C137.169 69.1343 136.838 69.0573 136.555 68.9033C136.275 68.7493 136.043 68.5399 135.856 68.2749C135.67 68.0099 135.531 67.7002 135.438 67.3457C135.348 66.9876 135.303 66.6045 135.303 66.1963ZM136.345 67.0664C136.345 67.2562 136.381 67.4299 136.453 67.5874C136.528 67.745 136.63 67.8792 136.759 67.9902C136.888 68.0977 137.038 68.1836 137.21 68.248C137.382 68.3089 137.572 68.3394 137.779 68.3394C138.277 68.3394 138.657 68.1818 138.918 67.8667C139.183 67.5516 139.315 67.1523 139.315 66.6689V65.7236C139.315 65.2402 139.183 64.841 138.918 64.5259C138.657 64.2072 138.277 64.0479 137.779 64.0479C137.575 64.0479 137.385 64.0801 137.21 64.1445C137.038 64.2054 136.888 64.2913 136.759 64.4023C136.63 64.5133 136.528 64.6476 136.453 64.8052C136.381 64.9627 136.345 65.1364 136.345 65.3262V67.0664ZM144.966 62.5547V61.5181H145.997V62.5547H144.966ZM144.987 69V63.3926H145.976V69H144.987ZM147.802 69V63.3926H148.79V64.3164C148.944 63.987 149.155 63.7292 149.424 63.543C149.692 63.3532 150.04 63.2583 150.466 63.2583C150.738 63.2583 150.985 63.2959 151.207 63.3711C151.429 63.4427 151.621 63.5591 151.782 63.7202C151.943 63.8813 152.068 64.089 152.158 64.3433C152.247 64.5939 152.292 64.9001 152.292 65.2617V69H151.298V65.3691C151.298 64.9574 151.22 64.6351 151.062 64.4023C150.904 64.166 150.613 64.0479 150.187 64.0479C149.982 64.0479 149.796 64.089 149.628 64.1714C149.46 64.2502 149.313 64.3647 149.188 64.5151C149.062 64.6655 148.964 64.8446 148.892 65.0522C148.824 65.2563 148.79 65.4801 148.79 65.7236V69H147.802ZM157.029 69V61.5181H158.506L161.595 67.7324H161.643V61.5181H162.653V69H161.181L158.087 62.7534H158.044V69H157.029ZM164.286 66.1963C164.286 65.7702 164.338 65.3763 164.441 65.0146C164.549 64.6494 164.706 64.3397 164.914 64.0854C165.125 63.8276 165.38 63.6253 165.677 63.4785C165.974 63.3317 166.316 63.2583 166.703 63.2583C167.107 63.2583 167.46 63.3281 167.761 63.4678C168.062 63.6074 168.31 63.799 168.507 64.0425C168.704 64.2824 168.853 64.5653 168.953 64.8911C169.053 65.217 169.104 65.5679 169.104 65.9438V66.4702H165.328V67.0664C165.328 67.2705 165.365 67.4513 165.44 67.6089C165.519 67.7664 165.625 67.9007 165.757 68.0117C165.89 68.1191 166.038 68.2015 166.203 68.2588C166.368 68.3125 166.538 68.3394 166.713 68.3394C167.064 68.3394 167.369 68.2498 167.626 68.0708C167.884 67.8918 168.031 67.6071 168.067 67.2168H169.061C169.039 67.5176 168.96 67.7861 168.824 68.0225C168.688 68.2552 168.511 68.4539 168.292 68.6187C168.078 68.7834 167.834 68.9105 167.562 69C167.29 69.0895 167.003 69.1343 166.703 69.1343C166.298 69.1343 165.944 69.0609 165.639 68.9141C165.338 68.7673 165.086 68.5649 164.882 68.3071C164.681 68.0493 164.531 67.7414 164.431 67.3833C164.334 67.0252 164.286 66.6296 164.286 66.1963ZM165.328 65.6807H168.078V65.3691C168.078 65.165 168.04 64.9806 167.965 64.8159C167.893 64.6512 167.793 64.5116 167.664 64.397C167.539 64.2824 167.392 64.1965 167.224 64.1392C167.059 64.0783 166.885 64.0479 166.703 64.0479C166.52 64.0479 166.346 64.0783 166.182 64.1392C166.017 64.1965 165.87 64.2824 165.741 64.397C165.612 64.5116 165.51 64.6512 165.435 64.8159C165.363 64.9806 165.328 65.165 165.328 65.3691V65.6807ZM170.06 63.3926H171.059L172.17 67.7808H172.213L173.202 63.3926H174.405L175.436 67.7808H175.479L176.602 63.3926H177.568L175.93 69H174.888L173.83 64.4561H173.787L172.718 69H171.698L170.06 63.3926ZM181.022 61.5181H182.166L184.035 64.9985L185.937 61.5181H187.048L184.551 66.0298V69H183.509V66.019L181.022 61.5181ZM187.886 66.1963C187.886 65.7702 187.936 65.3763 188.037 65.0146C188.14 64.6494 188.296 64.3397 188.504 64.0854C188.715 63.8276 188.978 63.6253 189.293 63.4785C189.609 63.3317 189.979 63.2583 190.405 63.2583C190.831 63.2583 191.202 63.3317 191.517 63.4785C191.832 63.6253 192.094 63.8276 192.301 64.0854C192.509 64.3397 192.665 64.6494 192.769 65.0146C192.872 65.3763 192.924 65.7702 192.924 66.1963C192.924 66.6296 192.872 67.0252 192.769 67.3833C192.665 67.7414 192.509 68.0493 192.301 68.3071C192.094 68.5649 191.83 68.7673 191.512 68.9141C191.197 69.0609 190.828 69.1343 190.405 69.1343C189.979 69.1343 189.609 69.0609 189.293 68.9141C188.978 68.7673 188.715 68.5649 188.504 68.3071C188.296 68.0493 188.14 67.7414 188.037 67.3833C187.936 67.0252 187.886 66.6296 187.886 66.1963ZM188.928 67.0664C188.928 67.2562 188.968 67.4299 189.046 67.5874C189.129 67.745 189.236 67.8792 189.369 67.9902C189.501 68.0977 189.657 68.1836 189.836 68.248C190.015 68.3089 190.205 68.3394 190.405 68.3394C190.602 68.3394 190.79 68.3089 190.969 68.248C191.148 68.1836 191.304 68.0977 191.437 67.9902C191.569 67.8792 191.675 67.745 191.753 67.5874C191.836 67.4299 191.877 67.2562 191.877 67.0664V65.3262C191.877 65.1364 191.836 64.9627 191.753 64.8052C191.675 64.6476 191.569 64.5133 191.437 64.4023C191.304 64.2913 191.148 64.2054 190.969 64.1445C190.79 64.0801 190.602 64.0479 190.405 64.0479C190.208 64.0479 190.019 64.0801 189.836 64.1445C189.657 64.2054 189.501 64.2913 189.369 64.4023C189.236 64.5133 189.129 64.6476 189.046 64.8052C188.968 64.9627 188.928 65.1364 188.928 65.3262V67.0664ZM194.455 69V63.3926H197.151V64.2466H195.443V69H194.455ZM198.387 69V61.5181H199.375V69H198.387ZM199.386 65.8633L201.588 63.3926H202.786L200.53 65.8633L202.941 69H201.808L199.386 65.8633Z" fill="black"/>
</svg>
