<svg width="329" height="329" viewBox="0 0 329 329" fill="none" xmlns="http://www.w3.org/2000/svg">
<path d="M328.5 164.5C328.5 255.075 255.075 328.5 164.5 328.5C73.9251 328.5 0.5 255.075 0.5 164.5C0.5 73.9251 73.9251 0.5 164.5 0.5C255.075 0.5 328.5 73.9251 328.5 164.5Z" fill="#0033FF" stroke="#EDFF1B"/>
<path d="M0.359681 152.26C0.0806581 156.557 -0.0360991 160.863 0.00966606 165.169C4.05975 163.574 8.05966 161.85 12.0035 160.001C24.8024 154.027 41.5331 144.686 57.0155 131.255C68.3326 121.44 79.0664 109.373 87.0701 94.7575C96.4039 99.7006 105.306 104.833 113.811 110.096C93.7221 134.094 77.5914 161.239 66.0459 190.477C56.28 215.189 50.0107 241.182 47.4251 267.681C47.0284 271.842 46.7717 275.67 46.6084 279.12C50.2252 282.889 54.0404 286.481 58.0072 289.895C58.0072 284.762 58.2055 277.579 59.0339 268.819C61.5135 243.441 67.5236 218.549 76.8847 194.887C88.1741 166.301 104.029 139.803 123.81 116.462C135.595 124.18 147.014 132.459 158.03 141.272C150.595 149.729 144.262 159.124 139.187 169.223C114.045 218.974 117.591 285.64 153.946 328.728C159.343 329.04 164.751 329.084 170.152 328.859C130.705 290.713 124.533 224.154 149.571 174.64C154.32 165.24 160.177 156.504 167.107 148.74C188.308 166.637 207.755 186.577 225.174 208.282C241.649 228.712 256.057 250.777 268.18 274.141C270.326 278.302 272.147 282.083 273.687 285.402C276.72 282.581 279.648 279.641 282.472 276.583C281.193 273.922 279.878 271.278 278.528 268.653C266.038 244.578 251.192 221.842 234.217 200.79C218.583 181.29 199.215 160.558 175.437 140.371C186.71 130.187 200.02 122.604 214.452 118.145C242.885 109.302 279.263 110.914 323.424 129.904C322.466 125.112 321.298 120.366 319.924 115.679C277.338 98.9656 240.82 97.5432 211.034 106.813C194.391 111.957 179.099 120.837 166.29 132.796C155.145 123.825 143.594 115.388 131.674 107.512C159.722 76.8464 198.41 47.366 251.752 23.4805C247.738 20.8517 243.611 18.4035 239.385 16.143C187.536 40.4907 149.501 70.1727 121.64 101.064C112.306 95.2317 102.506 89.5655 92.2153 84.1128C93.1267 81.9367 93.9672 79.7307 94.7355 77.4984C101.269 58.6034 103.077 36.5671 97.4306 11.1525C93.7554 12.8121 90.1503 14.5901 86.6268 16.4868C91.0953 38.7008 89.2519 57.5839 83.7333 73.5747C83.1285 75.3161 82.4749 77.0396 81.7732 78.743C66.9233 71.3466 51.7261 64.6926 36.2362 58.8049C33.6928 62.0054 31.2544 65.3126 28.9443 68.7028C45.1945 74.7524 61.1225 81.6608 76.663 89.3996C69.4877 102.332 59.8623 113.202 49.4435 122.235C35.0229 134.74 19.3072 143.548 7.12664 149.238C4.71154 150.364 2.42477 151.371 0.336348 152.26" fill="#EDFF1B"/>
</svg>
