<svg width="27" height="24" viewBox="0 0 27 24" fill="none" xmlns="http://www.w3.org/2000/svg">
<path d="M26.6309 0.153932C26.877 0.332404 27 0.568879 27 0.863358V19.71C27 19.8885 26.9517 20.0491 26.855 20.1919C26.7583 20.3346 26.6309 20.4373 26.4727 20.4997L18.0352 23.9264C17.8242 24.0245 17.6133 24.0245 17.4023 23.9264L9.28125 20.6336L1.16016 23.9264C1.07227 23.971 0.966797 23.9933 0.84375 23.9933C0.676758 23.9933 0.518555 23.9442 0.369141 23.8461C0.123047 23.6676 0 23.4311 0 23.1366V4.29002C0 4.11154 0.0483398 3.95092 0.14502 3.80814C0.241699 3.66537 0.369141 3.56274 0.527344 3.50028L8.96484 0.0736196C9.17578 -0.0245399 9.38672 -0.0245399 9.59766 0.0736196L17.7188 3.36643L25.8398 0.0736196C26.1211 -0.0423871 26.3848 -0.0156163 26.6309 0.153932ZM9.70312 1.96096V18.9604L17.2969 22.039V5.0396L9.70312 1.96096ZM1.6875 4.86559V21.865L8.85938 18.9604V1.96096L1.6875 4.86559ZM25.3125 19.1344V2.13497L18.1406 5.0396V22.039L25.3125 19.1344Z" fill="white"/>
</svg>
