<svg width="250" height="48" viewBox="0 0 250 48" fill="none" xmlns="http://www.w3.org/2000/svg">
<path d="M231.32 3.39666L235.027 28.5212L221.152 44.666" stroke="#EDFF1B" stroke-width="5"/>
<path d="M231.973 4.6712L244.585 25.0312L231.973 45.3912" stroke="#EDFF1B" stroke-width="5"/>
<path d="M233.775 3.9505L246.387 24.4907L233.775 45.0309" stroke="#0033FF" stroke-width="5"/>
<path d="M233.218 3.12551L236.925 28.2501L223.05 44.3949" stroke="#0033FF" stroke-width="5"/>
<path d="M3.35938 36V8.79297H20.7227V13.207H8.55469V19.8867H19.7656V24.2812H8.55469V36H3.35938ZM28.9898 22.4062C28.9898 17.7448 30.038 14.2161 32.1344 11.8203C34.2437 9.41146 37.232 8.20703 41.0992 8.20703C44.9664 8.20703 47.9547 9.41146 50.0641 11.8203C52.1734 14.2161 53.2281 17.7448 53.2281 22.4062C53.2281 27.0677 52.1734 30.6029 50.0641 33.0117C47.9547 35.4076 44.9664 36.6055 41.0992 36.6055C37.232 36.6055 34.2437 35.4076 32.1344 33.0117C30.038 30.6029 28.9898 27.0677 28.9898 22.4062ZM34.5758 26.6055C34.5758 27.5169 34.7516 28.3177 35.1031 29.0078C35.4547 29.6979 35.9234 30.2839 36.5094 30.7656C37.0953 31.2474 37.7789 31.6055 38.5602 31.8398C39.3414 32.0742 40.1878 32.1914 41.0992 32.1914C42.0107 32.1914 42.857 32.0742 43.6383 31.8398C44.4326 31.6055 45.1227 31.2474 45.7086 30.7656C46.2945 30.2839 46.7568 29.6979 47.0953 29.0078C47.4469 28.3047 47.6227 27.5039 47.6227 26.6055V18.207C47.6227 17.2956 47.4469 16.4948 47.0953 15.8047C46.7568 15.1146 46.2945 14.5286 45.7086 14.0469C45.1227 13.5651 44.4326 13.207 43.6383 12.9727C42.857 12.7253 42.0107 12.6016 41.0992 12.6016C40.1878 12.6016 39.3414 12.7253 38.5602 12.9727C37.7789 13.207 37.0953 13.5651 36.5094 14.0469C35.9234 14.5286 35.4547 15.1146 35.1031 15.8047C34.7516 16.4948 34.5758 17.2956 34.5758 18.207V26.6055ZM63.175 36V8.79297H74.2492C77.1529 8.79297 79.3013 9.48307 80.6945 10.8633C82.0878 12.2305 82.7844 14.3398 82.7844 17.1914C82.7844 19.3529 82.2701 21.0911 81.2414 22.4062C80.2128 23.7083 78.7805 24.6133 76.9445 25.1211L83.175 36H77.4133L71.6906 25.5508H68.3703V36H63.175ZM68.3703 21.2734H74.9328C76.5604 21.2734 77.3742 20.3685 77.3742 18.5586V15.7656C77.3742 14.8542 77.1919 14.2031 76.8273 13.8125C76.4758 13.4089 75.8443 13.207 74.9328 13.207H68.3703V21.2734ZM90.9344 8.79297H96.7352L100.934 30.3945H101.091L105.173 8.79297H112.243L116.325 30.3945H116.481L120.759 8.79297H126.442L119.88 36H112.809L108.766 14.6719H108.61L104.528 36H97.5359L90.9344 8.79297ZM133.049 36L142.327 8.79297H147.854L157.092 36H151.487L149.69 30.1992H140.413L138.655 36H133.049ZM141.76 25.8047H148.362L145.217 15.082H145.041L141.76 25.8047ZM165.672 36V8.79297H176.746C179.65 8.79297 181.798 9.48307 183.191 10.8633C184.585 12.2305 185.281 14.3398 185.281 17.1914C185.281 19.3529 184.767 21.0911 183.738 22.4062C182.71 23.7083 181.277 24.6133 179.441 25.1211L185.672 36H179.91L174.188 25.5508H170.867V36H165.672ZM170.867 21.2734H177.43C179.057 21.2734 179.871 20.3685 179.871 18.5586V15.7656C179.871 14.8542 179.689 14.2031 179.324 13.8125C178.973 13.4089 178.341 13.207 177.43 13.207H170.867V21.2734ZM195.423 36V8.79297H204.623C208.92 8.79297 212.005 9.91927 213.88 12.1719C215.768 14.4245 216.712 17.8359 216.712 22.4062C216.712 26.9635 215.768 30.3685 213.88 32.6211C212.005 34.8737 208.92 36 204.623 36H195.423ZM200.619 31.6055H204.623C206.784 31.6055 208.438 31.1823 209.584 30.3359C210.729 29.4766 211.302 28.1354 211.302 26.3125V18.4805C211.302 16.6706 210.729 15.3424 209.584 14.4961C208.438 13.6367 206.784 13.207 204.623 13.207H200.619V31.6055Z" fill="#0033FF"/>
</svg>
