<svg width="276" height="469" viewBox="0 0 276 469" fill="none" xmlns="http://www.w3.org/2000/svg">
<path d="M4.19922 442V407.991H25.9033V413.509H10.6934V421.858H24.707V427.352H10.6934V442H4.19922ZM35.7373 425.008C35.7373 419.181 37.0475 414.77 39.668 411.775C42.3047 408.764 46.04 407.259 50.874 407.259C55.708 407.259 59.4434 408.764 62.0801 411.775C64.7168 414.77 66.0352 419.181 66.0352 425.008C66.0352 430.835 64.7168 435.254 62.0801 438.265C59.4434 441.259 55.708 442.757 50.874 442.757C46.04 442.757 42.3047 441.259 39.668 438.265C37.0475 435.254 35.7373 430.835 35.7373 425.008ZM42.7197 430.257C42.7197 431.396 42.9395 432.397 43.3789 433.26C43.8184 434.122 44.4043 434.855 45.1367 435.457C45.8691 436.059 46.7236 436.507 47.7002 436.8C48.6768 437.093 49.7347 437.239 50.874 437.239C52.0133 437.239 53.0713 437.093 54.0479 436.8C55.0407 436.507 55.9033 436.059 56.6357 435.457C57.3682 434.855 57.946 434.122 58.3691 433.26C58.8086 432.381 59.0283 431.38 59.0283 430.257V419.759C59.0283 418.619 58.8086 417.618 58.3691 416.756C57.946 415.893 57.3682 415.161 56.6357 414.559C55.9033 413.956 55.0407 413.509 54.0479 413.216C53.0713 412.907 52.0133 412.752 50.874 412.752C49.7347 412.752 48.6768 412.907 47.7002 413.216C46.7236 413.509 45.8691 413.956 45.1367 414.559C44.4043 415.161 43.8184 415.893 43.3789 416.756C42.9395 417.618 42.7197 418.619 42.7197 419.759V430.257ZM77.9688 442V407.991H91.8115C95.4411 407.991 98.1266 408.854 99.8682 410.579C101.61 412.288 102.48 414.925 102.48 418.489C102.48 421.191 101.838 423.364 100.552 425.008C99.266 426.635 97.4756 427.767 95.1807 428.401L102.969 442H95.7666L88.6133 428.938H84.4629V442H77.9688ZM84.4629 423.592H92.666C94.7005 423.592 95.7178 422.461 95.7178 420.198V416.707C95.7178 415.568 95.4899 414.754 95.0342 414.266C94.5947 413.761 93.8053 413.509 92.666 413.509H84.4629V423.592ZM112.168 407.991H119.419L124.668 434.993H124.863L129.966 407.991H138.804L143.906 434.993H144.102L149.448 407.991H156.553L148.35 442H139.512L134.458 415.34H134.263L129.16 442H120.42L112.168 407.991ZM164.312 442L175.908 407.991H182.817L194.365 442H187.358L185.112 434.749H173.516L171.318 442H164.312ZM175.2 429.256H183.452L179.521 415.853H179.302L175.2 429.256ZM204.59 442V407.991H218.433C222.062 407.991 224.748 408.854 226.489 410.579C228.231 412.288 229.102 414.925 229.102 418.489C229.102 421.191 228.459 423.364 227.173 425.008C225.887 426.635 224.097 427.767 221.802 428.401L229.59 442H222.388L215.234 428.938H211.084V442H204.59ZM211.084 423.592H219.287C221.322 423.592 222.339 422.461 222.339 420.198V416.707C222.339 415.568 222.111 414.754 221.655 414.266C221.216 413.761 220.426 413.509 219.287 413.509H211.084V423.592ZM241.279 442V407.991H252.778C258.149 407.991 262.007 409.399 264.351 412.215C266.711 415.031 267.891 419.295 267.891 425.008C267.891 430.704 266.711 434.961 264.351 437.776C262.007 440.592 258.149 442 252.778 442H241.279ZM247.773 436.507H252.778C255.48 436.507 257.547 435.978 258.979 434.92C260.412 433.846 261.128 432.169 261.128 429.891V420.101C261.128 417.838 260.412 416.178 258.979 415.12C257.547 414.046 255.48 413.509 252.778 413.509H247.773V436.507Z" fill="#0033FF"/>
<path d="M89.0098 466V458.518H91.4321C92.5601 458.518 93.3765 458.828 93.8813 459.447C94.3898 460.067 94.644 461.005 94.644 462.262C94.644 463.515 94.3898 464.451 93.8813 465.071C93.3765 465.69 92.5601 466 91.4321 466H89.0098ZM90.0571 465.065H91.4321C92.1375 465.065 92.6567 464.919 92.9897 464.625C93.3228 464.331 93.4893 463.909 93.4893 463.357V461.161C93.4893 460.609 93.3228 460.187 92.9897 459.893C92.6567 459.599 92.1375 459.453 91.4321 459.453H90.0571V465.065ZM95.9546 463.196C95.9546 462.77 96.0065 462.376 96.1104 462.015C96.2178 461.649 96.3753 461.34 96.583 461.085C96.7943 460.828 97.0485 460.625 97.3457 460.479C97.6429 460.332 97.9849 460.258 98.3716 460.258C98.7762 460.258 99.1289 460.328 99.4297 460.468C99.7305 460.607 99.9793 460.799 100.176 461.042C100.373 461.282 100.522 461.565 100.622 461.891C100.722 462.217 100.772 462.568 100.772 462.944V463.47H96.9966V464.066C96.9966 464.271 97.0342 464.451 97.1094 464.609C97.1882 464.766 97.2938 464.901 97.4263 465.012C97.5588 465.119 97.7074 465.201 97.8721 465.259C98.0368 465.312 98.2069 465.339 98.3823 465.339C98.7332 465.339 99.0376 465.25 99.2954 465.071C99.5532 464.892 99.7 464.607 99.7358 464.217H100.729C100.708 464.518 100.629 464.786 100.493 465.022C100.357 465.255 100.18 465.454 99.9614 465.619C99.7466 465.783 99.5031 465.91 99.231 466C98.9588 466.09 98.6724 466.134 98.3716 466.134C97.967 466.134 97.6125 466.061 97.3081 465.914C97.0073 465.767 96.7549 465.565 96.5508 465.307C96.3503 465.049 96.1999 464.741 96.0996 464.383C96.0029 464.025 95.9546 463.63 95.9546 463.196ZM96.9966 462.681H99.7466V462.369C99.7466 462.165 99.709 461.981 99.6338 461.816C99.5622 461.651 99.4619 461.512 99.333 461.397C99.2077 461.282 99.0609 461.196 98.8926 461.139C98.7279 461.078 98.5542 461.048 98.3716 461.048C98.189 461.048 98.0153 461.078 97.8506 461.139C97.6859 461.196 97.5391 461.282 97.4102 461.397C97.2812 461.512 97.1792 461.651 97.104 461.816C97.0324 461.981 96.9966 462.165 96.9966 462.369V462.681ZM101.669 460.393H102.738L104.146 464.824H104.188L105.623 460.393H106.643L104.629 466H103.684L101.669 460.393ZM107.567 463.196C107.567 462.77 107.619 462.376 107.723 462.015C107.83 461.649 107.988 461.34 108.195 461.085C108.407 460.828 108.661 460.625 108.958 460.479C109.255 460.332 109.597 460.258 109.984 460.258C110.389 460.258 110.741 460.328 111.042 460.468C111.343 460.607 111.592 460.799 111.789 461.042C111.986 461.282 112.134 461.565 112.234 461.891C112.335 462.217 112.385 462.568 112.385 462.944V463.47H108.609V464.066C108.609 464.271 108.646 464.451 108.722 464.609C108.8 464.766 108.906 464.901 109.039 465.012C109.171 465.119 109.32 465.201 109.484 465.259C109.649 465.312 109.819 465.339 109.995 465.339C110.346 465.339 110.65 465.25 110.908 465.071C111.166 464.892 111.312 464.607 111.348 464.217H112.342C112.32 464.518 112.242 464.786 112.105 465.022C111.969 465.255 111.792 465.454 111.574 465.619C111.359 465.783 111.115 465.91 110.843 466C110.571 466.09 110.285 466.134 109.984 466.134C109.579 466.134 109.225 466.061 108.92 465.914C108.62 465.767 108.367 465.565 108.163 465.307C107.963 465.049 107.812 464.741 107.712 464.383C107.615 464.025 107.567 463.63 107.567 463.196ZM108.609 462.681H111.359V462.369C111.359 462.165 111.321 461.981 111.246 461.816C111.174 461.651 111.074 461.512 110.945 461.397C110.82 461.282 110.673 461.196 110.505 461.139C110.34 461.078 110.167 461.048 109.984 461.048C109.801 461.048 109.628 461.078 109.463 461.139C109.298 461.196 109.151 461.282 109.022 461.397C108.894 461.512 108.792 461.651 108.716 461.816C108.645 461.981 108.609 462.165 108.609 462.369V462.681ZM113.91 466V458.518H114.898V466H113.91ZM116.451 463.196C116.451 462.77 116.501 462.376 116.601 462.015C116.705 461.649 116.861 461.34 117.068 461.085C117.28 460.828 117.543 460.625 117.858 460.479C118.173 460.332 118.544 460.258 118.97 460.258C119.396 460.258 119.766 460.332 120.082 460.479C120.397 460.625 120.658 460.828 120.866 461.085C121.073 461.34 121.229 461.649 121.333 462.015C121.437 462.376 121.489 462.77 121.489 463.196C121.489 463.63 121.437 464.025 121.333 464.383C121.229 464.741 121.073 465.049 120.866 465.307C120.658 465.565 120.395 465.767 120.076 465.914C119.761 466.061 119.392 466.134 118.97 466.134C118.544 466.134 118.173 466.061 117.858 465.914C117.543 465.767 117.28 465.565 117.068 465.307C116.861 465.049 116.705 464.741 116.601 464.383C116.501 464.025 116.451 463.63 116.451 463.196ZM117.493 464.066C117.493 464.256 117.532 464.43 117.611 464.587C117.693 464.745 117.801 464.879 117.933 464.99C118.066 465.098 118.221 465.184 118.4 465.248C118.579 465.309 118.769 465.339 118.97 465.339C119.167 465.339 119.355 465.309 119.534 465.248C119.713 465.184 119.868 465.098 120.001 464.99C120.133 464.879 120.239 464.745 120.318 464.587C120.4 464.43 120.441 464.256 120.441 464.066V462.326C120.441 462.136 120.4 461.963 120.318 461.805C120.239 461.648 120.133 461.513 120.001 461.402C119.868 461.291 119.713 461.205 119.534 461.145C119.355 461.08 119.167 461.048 118.97 461.048C118.773 461.048 118.583 461.08 118.4 461.145C118.221 461.205 118.066 461.291 117.933 461.402C117.801 461.513 117.693 461.648 117.611 461.805C117.532 461.963 117.493 462.136 117.493 462.326V464.066ZM123.02 467.869V460.393H124.008V461.306C124.183 460.969 124.42 460.711 124.717 460.532C125.014 460.35 125.376 460.258 125.802 460.258C126.174 460.258 126.5 460.335 126.779 460.489C127.059 460.643 127.29 460.853 127.472 461.118C127.658 461.379 127.796 461.691 127.886 462.052C127.979 462.41 128.025 462.792 128.025 463.196C128.025 463.608 127.979 463.991 127.886 464.346C127.796 464.7 127.658 465.01 127.472 465.275C127.29 465.54 127.059 465.749 126.779 465.903C126.504 466.057 126.178 466.134 125.802 466.134C125.376 466.134 125.014 466.045 124.717 465.866C124.42 465.683 124.183 465.424 124.008 465.087V467.869H123.02ZM124.008 463.669C124.008 464.152 124.14 464.552 124.405 464.867C124.67 465.182 125.052 465.339 125.549 465.339C125.968 465.339 126.31 465.223 126.575 464.99C126.844 464.754 126.978 464.446 126.978 464.066V462.326C126.978 461.947 126.844 461.639 126.575 461.402C126.31 461.166 125.968 461.048 125.549 461.048C125.052 461.048 124.67 461.207 124.405 461.526C124.14 461.841 124.008 462.24 124.008 462.724V463.669ZM129.266 463.196C129.266 462.77 129.318 462.376 129.422 462.015C129.529 461.649 129.687 461.34 129.895 461.085C130.106 460.828 130.36 460.625 130.657 460.479C130.954 460.332 131.296 460.258 131.683 460.258C132.088 460.258 132.44 460.328 132.741 460.468C133.042 460.607 133.291 460.799 133.488 461.042C133.685 461.282 133.833 461.565 133.934 461.891C134.034 462.217 134.084 462.568 134.084 462.944V463.47H130.308V464.066C130.308 464.271 130.346 464.451 130.421 464.609C130.5 464.766 130.605 464.901 130.738 465.012C130.87 465.119 131.019 465.201 131.184 465.259C131.348 465.312 131.518 465.339 131.694 465.339C132.045 465.339 132.349 465.25 132.607 465.071C132.865 464.892 133.012 464.607 133.047 464.217H134.041C134.02 464.518 133.941 464.786 133.805 465.022C133.669 465.255 133.491 465.454 133.273 465.619C133.058 465.783 132.815 465.91 132.542 466C132.27 466.09 131.984 466.134 131.683 466.134C131.278 466.134 130.924 466.061 130.62 465.914C130.319 465.767 130.066 465.565 129.862 465.307C129.662 465.049 129.511 464.741 129.411 464.383C129.314 464.025 129.266 463.63 129.266 463.196ZM130.308 462.681H133.058V462.369C133.058 462.165 133.021 461.981 132.945 461.816C132.874 461.651 132.773 461.512 132.645 461.397C132.519 461.282 132.372 461.196 132.204 461.139C132.039 461.078 131.866 461.048 131.683 461.048C131.5 461.048 131.327 461.078 131.162 461.139C130.997 461.196 130.851 461.282 130.722 461.397C130.593 461.512 130.491 461.651 130.416 461.816C130.344 461.981 130.308 462.165 130.308 462.369V462.681ZM135.303 463.196C135.303 462.792 135.348 462.41 135.438 462.052C135.531 461.691 135.668 461.379 135.851 461.118C136.034 460.853 136.265 460.643 136.544 460.489C136.823 460.335 137.149 460.258 137.521 460.258C137.94 460.258 138.3 460.348 138.601 460.527C138.902 460.706 139.14 460.965 139.315 461.306V458.518H140.309V466H139.315V465.087C139.14 465.424 138.905 465.683 138.612 465.866C138.318 466.045 137.964 466.134 137.548 466.134C137.169 466.134 136.838 466.057 136.555 465.903C136.275 465.749 136.043 465.54 135.856 465.275C135.67 465.01 135.531 464.7 135.438 464.346C135.348 463.988 135.303 463.604 135.303 463.196ZM136.345 464.066C136.345 464.256 136.381 464.43 136.453 464.587C136.528 464.745 136.63 464.879 136.759 464.99C136.888 465.098 137.038 465.184 137.21 465.248C137.382 465.309 137.572 465.339 137.779 465.339C138.277 465.339 138.657 465.182 138.918 464.867C139.183 464.552 139.315 464.152 139.315 463.669V462.724C139.315 462.24 139.183 461.841 138.918 461.526C138.657 461.207 138.277 461.048 137.779 461.048C137.575 461.048 137.385 461.08 137.21 461.145C137.038 461.205 136.888 461.291 136.759 461.402C136.63 461.513 136.528 461.648 136.453 461.805C136.381 461.963 136.345 462.136 136.345 462.326V464.066ZM144.966 459.555V458.518H145.997V459.555H144.966ZM144.987 466V460.393H145.976V466H144.987ZM147.802 466V460.393H148.79V461.316C148.944 460.987 149.155 460.729 149.424 460.543C149.692 460.353 150.04 460.258 150.466 460.258C150.738 460.258 150.985 460.296 151.207 460.371C151.429 460.443 151.621 460.559 151.782 460.72C151.943 460.881 152.068 461.089 152.158 461.343C152.247 461.594 152.292 461.9 152.292 462.262V466H151.298V462.369C151.298 461.957 151.22 461.635 151.062 461.402C150.904 461.166 150.613 461.048 150.187 461.048C149.982 461.048 149.796 461.089 149.628 461.171C149.46 461.25 149.313 461.365 149.188 461.515C149.062 461.666 148.964 461.845 148.892 462.052C148.824 462.256 148.79 462.48 148.79 462.724V466H147.802ZM157.029 466V458.518H158.506L161.595 464.732H161.643V458.518H162.653V466H161.181L158.087 459.753H158.044V466H157.029ZM164.286 463.196C164.286 462.77 164.338 462.376 164.441 462.015C164.549 461.649 164.706 461.34 164.914 461.085C165.125 460.828 165.38 460.625 165.677 460.479C165.974 460.332 166.316 460.258 166.703 460.258C167.107 460.258 167.46 460.328 167.761 460.468C168.062 460.607 168.31 460.799 168.507 461.042C168.704 461.282 168.853 461.565 168.953 461.891C169.053 462.217 169.104 462.568 169.104 462.944V463.47H165.328V464.066C165.328 464.271 165.365 464.451 165.44 464.609C165.519 464.766 165.625 464.901 165.757 465.012C165.89 465.119 166.038 465.201 166.203 465.259C166.368 465.312 166.538 465.339 166.713 465.339C167.064 465.339 167.369 465.25 167.626 465.071C167.884 464.892 168.031 464.607 168.067 464.217H169.061C169.039 464.518 168.96 464.786 168.824 465.022C168.688 465.255 168.511 465.454 168.292 465.619C168.078 465.783 167.834 465.91 167.562 466C167.29 466.09 167.003 466.134 166.703 466.134C166.298 466.134 165.944 466.061 165.639 465.914C165.338 465.767 165.086 465.565 164.882 465.307C164.681 465.049 164.531 464.741 164.431 464.383C164.334 464.025 164.286 463.63 164.286 463.196ZM165.328 462.681H168.078V462.369C168.078 462.165 168.04 461.981 167.965 461.816C167.893 461.651 167.793 461.512 167.664 461.397C167.539 461.282 167.392 461.196 167.224 461.139C167.059 461.078 166.885 461.048 166.703 461.048C166.52 461.048 166.346 461.078 166.182 461.139C166.017 461.196 165.87 461.282 165.741 461.397C165.612 461.512 165.51 461.651 165.435 461.816C165.363 461.981 165.328 462.165 165.328 462.369V462.681ZM170.06 460.393H171.059L172.17 464.781H172.213L173.202 460.393H174.405L175.436 464.781H175.479L176.602 460.393H177.568L175.93 466H174.888L173.83 461.456H173.787L172.718 466H171.698L170.06 460.393ZM181.022 458.518H182.166L184.035 461.999L185.937 458.518H187.048L184.551 463.03V466H183.509V463.019L181.022 458.518ZM187.886 463.196C187.886 462.77 187.936 462.376 188.037 462.015C188.14 461.649 188.296 461.34 188.504 461.085C188.715 460.828 188.978 460.625 189.293 460.479C189.609 460.332 189.979 460.258 190.405 460.258C190.831 460.258 191.202 460.332 191.517 460.479C191.832 460.625 192.094 460.828 192.301 461.085C192.509 461.34 192.665 461.649 192.769 462.015C192.872 462.376 192.924 462.77 192.924 463.196C192.924 463.63 192.872 464.025 192.769 464.383C192.665 464.741 192.509 465.049 192.301 465.307C192.094 465.565 191.83 465.767 191.512 465.914C191.197 466.061 190.828 466.134 190.405 466.134C189.979 466.134 189.609 466.061 189.293 465.914C188.978 465.767 188.715 465.565 188.504 465.307C188.296 465.049 188.14 464.741 188.037 464.383C187.936 464.025 187.886 463.63 187.886 463.196ZM188.928 464.066C188.928 464.256 188.968 464.43 189.046 464.587C189.129 464.745 189.236 464.879 189.369 464.99C189.501 465.098 189.657 465.184 189.836 465.248C190.015 465.309 190.205 465.339 190.405 465.339C190.602 465.339 190.79 465.309 190.969 465.248C191.148 465.184 191.304 465.098 191.437 464.99C191.569 464.879 191.675 464.745 191.753 464.587C191.836 464.43 191.877 464.256 191.877 464.066V462.326C191.877 462.136 191.836 461.963 191.753 461.805C191.675 461.648 191.569 461.513 191.437 461.402C191.304 461.291 191.148 461.205 190.969 461.145C190.79 461.08 190.602 461.048 190.405 461.048C190.208 461.048 190.019 461.08 189.836 461.145C189.657 461.205 189.501 461.291 189.369 461.402C189.236 461.513 189.129 461.648 189.046 461.805C188.968 461.963 188.928 462.136 188.928 462.326V464.066ZM194.455 466V460.393H197.151V461.247H195.443V466H194.455ZM198.387 466V458.518H199.375V466H198.387ZM199.386 462.863L201.588 460.393H202.786L200.53 462.863L202.941 466H201.808L199.386 462.863Z" fill="black"/>
<path d="M114.873 4.92574L142.214 190.239L39.8698 309.32" stroke="#EDFF1B" stroke-width="35"/>
<path d="M119 14L213 164.5L119 315" stroke="#EDFF1B" stroke-width="35"/>
<path d="M132 10L226 160.5L132 311" stroke="#0033FF" stroke-width="35"/>
<path d="M128.873 2.92574L156.214 188.239L53.8698 307.32" stroke="#0033FF" stroke-width="35"/>
</svg>
