<svg width="340" height="340" viewBox="0 0 340 340" fill="none" xmlns="http://www.w3.org/2000/svg">
<circle cx="170" cy="170" r="170" fill="#EDFF1B"/>
<path d="M62.2891 76.1016C59.168 76.832 61.1602 76.6992 58.5703 77.0312C47.4805 79.4219 55.7148 81.5469 62.2891 76.1016ZM257.324 80.5508C258.121 80.0195 260.91 77.2969 252.211 74.6406C252.742 77.3633 250.418 77.0977 250.418 78.625C256.859 84.4688 259.516 94.6289 267.75 96.7539C269.344 89.4492 260.445 85.8633 257.324 80.5508ZM56.3789 73.9766C57.375 79.8867 61.8242 67.7344 61.8906 63.418C60.1641 64.4141 58.4375 65.4102 56.6445 66.207C60.8281 68.332 57.1758 70.5898 52.6602 73.9766C43.4961 85.3984 61.2266 65.0781 56.3789 73.9766ZM170 0C76.1016 0 0 76.1016 0 170C0 263.832 76.1016 340 170 340C263.898 340 340 263.832 340 170C340 76.1016 263.898 0 170 0ZM174.516 56.9766L175.312 57.2422C172.125 61.3594 191.914 73.3789 177.703 74.375C164.422 78.1602 183.281 70.9219 172.988 72.1836C178.434 64.6133 168.672 64.4805 174.516 56.9766ZM93.8984 67.8672C89.1172 63.8828 74.1094 73.3125 79.3555 71.0547C92.3711 65.9414 80.2188 71.5859 83.2734 77.6953C80.4844 83.4727 82.3438 71.9844 75.4375 78.8242C70.457 79.9531 58.2383 91.2422 59.7656 87.7891C59.3672 93.168 45.2227 99.543 43.2969 108.508C38.6484 120.926 42.168 108.043 41.3047 103.195C34.6641 94.7617 22.5781 117.473 26.1641 126.437C32.207 115.812 31.7422 125.309 27.3594 130.023C31.8086 138.191 23.3086 148.816 31.7422 154.859C35.4609 155.723 42.8984 142.375 39.6445 156.254C41.9023 144.234 45.8867 159.109 52.3281 155.789C52.7266 162.098 56.6445 159.176 57.5078 166.812C68.2656 166.016 78.0938 184.211 65.2773 187.664C67.2031 187.133 70.9883 190.52 75.3711 187.93C82.8086 193.84 102.398 194.57 102.93 209.18C89.4492 215.621 99.6094 233.285 87.9219 239.594C74.5078 237.602 83.3398 256.129 77.6953 254.004C79.9531 267.352 64.1484 252.277 70.2578 259.648C81.4805 266.555 65.3438 265.16 70.3906 270.207C64.7461 269.012 73.9102 280.699 75.4375 285.016C83.5391 298.164 68.4648 282.094 64.0156 277.711C59.7656 269.211 49.7383 252.941 46.9492 239.594C45.3555 220.203 30.3477 207.188 26.8945 188.262C23.4414 177.703 36.3906 160.77 29.418 154.859C23.375 150.145 25.832 134.008 22.2461 125.508C31.2109 86.6602 59.6992 53.9219 93.8984 34.5312C90.3789 37.1211 114.02 27.8242 111.297 30.082C110.566 31.7422 125.109 23.7734 133.875 22.5781C132.945 22.7109 111.098 30.5469 117.141 29.4844C107.777 34.0664 116.211 31.4766 120.859 29.1523C111.562 35.9922 104.391 34.0664 93.832 40.1094C83.207 42.8984 85.3984 53.9219 77.8281 59.4336C82.2773 60.2305 93.4336 47.9453 99.9414 43.6289C114.883 36.3906 92.3711 56.7773 106.582 48.0117C101.801 52.4609 102.797 59.5664 99.875 61.5586C98.4141 61.1602 105.652 65.0117 93.8984 67.8672ZM117.141 37.3203C115.613 39.3789 113.488 43.8281 112.227 41.1055C110.5 41.9688 109.836 45.6875 106.582 42.6992C108.508 41.3047 110.5 37.9844 106.715 40.043C108.441 38.1836 123.848 32.9375 122.984 30.9453C125.707 29.2188 125.441 28.3555 122.32 29.418C120.727 28.8867 126.105 24.3711 133.277 23.7734C134.273 23.7734 134.672 24.4375 132.879 24.2383C122.055 27.5586 126.703 26.6289 134.008 24.2383C131.219 25.832 129.293 26.2969 128.828 27.0273C136.133 24.3711 128.43 28.9531 130.09 28.6211C128.031 29.6836 130.422 30.0156 126.437 31.543C127.168 30.9453 119.93 35.8594 124.246 34.3984C120.063 38.3828 118.203 38.4492 117.141 37.3203ZM123.516 46.8164C123.648 40.4414 132.812 36.3906 131.684 36.0586C142.973 30.7461 127.766 36.2578 136.664 31.4766C139.984 31.1445 147.023 20.5195 156.785 19.8555C167.543 16.6016 162.562 20.0547 170.531 17L168.938 18.3281C167.543 18.5273 169.27 20.9844 164.223 24.7031C163.691 30.4805 154.594 27.8242 159.109 34C156.188 29.8164 151.805 33.8672 157.316 34.2656C151.406 38.7812 137.66 39.5781 131.086 47.082C126.836 53.1914 122.918 51.2656 123.516 46.8164ZM170.73 68.0664C166.215 78.957 161.832 66.4727 169.801 64.4805C171.793 65.543 172.59 65.875 170.73 68.0664ZM153.73 46.2852C152.402 41.3711 153.465 43.9609 161.367 41.6367C166.812 45.5547 156.52 48.1445 153.73 46.2852ZM277.379 241.188C271.137 230.43 284.949 220.469 289.598 211.438C289 221.996 287.672 232.422 277.379 241.188ZM300.887 118.27C294.113 118.801 288.004 120.395 281.895 116.543C267.816 101.137 284.484 133.941 289.133 120.527C305.867 126.902 288.867 154.395 278.309 151.539C272.398 138.789 265.094 124.777 252.211 118.535C262.105 129.492 267.02 142.973 277.645 152.867C278.375 166.68 292.387 147.82 291.523 158.512C292.852 176.906 270.738 187.93 274.59 206.391C282.824 223.191 258.719 226.246 261.441 241.32C251.746 252.145 241.387 266.754 223.988 264.43C223.988 255.266 219.34 247.496 218.277 238.066C208.848 226.113 228.238 213.297 216.219 200.812C202.34 197.691 219.074 178.566 204.797 180.359C196.23 171.793 183.68 180.094 171.395 180.16C155.988 181.621 140.117 161.234 146.957 146.824C141.512 131.816 164.223 127.434 164.82 114.219C175.711 105.121 191.184 106.25 205.926 104.125C204.863 114.684 216.02 114.75 224.453 118.27C229.168 106.848 243.844 120.129 253.871 112.891C257.324 96.0234 244.109 106.184 236.539 100.805C227.375 87.3906 256.129 93.8984 253.141 86.8594C241.984 86.793 248.293 73.1133 240.391 80.75C247.496 82.0117 239.129 87.5898 239.328 81.2148C228.57 78.0938 238.93 93.4336 233.484 94.8945C225.184 91.4414 229.102 98.8125 229.965 99.9414C226.379 107.711 221.996 88.5195 211.836 89.0508C201.742 79.8203 207.852 93.2344 216.617 95.4258C214.758 95.957 217.68 103.594 215.355 100.34C208.117 90.3789 194.371 83.7383 186.203 95.957C185.34 107.379 162.098 110.633 165.816 97.2852C160.371 83.4727 182.684 96.8867 180.625 85.8633C166.281 76.3672 184.543 79.4219 189.391 70.5234C200.414 70.8555 189.855 61.4922 195.035 58.7695C194.504 68.9297 203.469 67.0039 210.574 65.0781C208.848 59.2344 214.824 59.4336 211.172 54.5859C227.641 48.0117 198.621 57.6406 204.465 43.2305C197.359 38.3164 201.477 54.0547 204.465 55.7148C204.664 60.5625 200.547 66.5391 194.902 56.3789C186.668 61.7578 187.531 50.9336 187 52.0625C186.07 47.8789 193.242 47.6797 193.309 40.375C192.711 35.7266 192.844 33.2695 196.164 33.0039C196.43 33.668 209.777 33.8672 214.492 39.3789C201.609 36.7891 212.566 41.5039 218.344 44.1602C212.168 39.3125 220.801 44.1602 215.754 38.6484C217.746 39.0469 210.242 31.0781 217.945 38.0508C213.762 33.0703 226.113 34.5312 218.809 30.8125C229.5 33.8008 223.191 31.0781 216.883 28.3555C199.484 17.9961 247.629 42.3672 227.973 31.543C240.523 34.2656 201.145 21.8477 219.074 27.293C212.234 24.3047 218.875 25.9648 225.051 27.8906C213.961 24.4375 197.359 17.9961 198.023 17.7305C201.875 17.9961 205.66 18.8594 209.313 19.9219C220.668 23.3086 206.059 19.125 209.18 19.1914C248.227 29.2188 282.426 55.3828 303.211 89.582C308.059 94.6953 321.273 128.496 314.367 113.488C317.488 125.441 317.953 138.324 319.613 150.543C316.16 146.691 312.309 132.48 308.988 124.578C307.594 127.633 306 120.262 300.887 118.27Z" fill="#0033FF"/>
</svg>
